<?xml version="1.0" encoding="UTF-8"?><svg id="Layer_2" xmlns="http://www.w3.org/2000/svg" viewBox="0 0 140.0338 172.6628"><g id="Components"><g id="_3a997740-9f77-464a-85fd-1c75a9028e1a_13"><path d="M74.1421.0025c-2.3374-.0543-4.5722.7749-6.4437,2.2723-5.8455,4.0441-7.2787,13.2831-2.3552,18.5887,3.7903,4.0845,9.1561,6.6588,14.6265,7.6341,2.6562.4728,5.4812.3682,7.9331-.7571,11.759-5.4013.3544-20.4532-6.2739-24.9109-1.7945-1.2072-3.7538-2.2298-5.8761-2.6493-.5399-.1066-1.0779-.1649-1.6109-.1777" style="fill:#1e2329;"/><path d="M97.8962,35.8431c7.6834-6.7862,11.8182-16.7418,18.9736-24.3275,1.9218-1.5309,4.4073-.6208,5.4477,1.3168,3.6255,6.2867,3.3492,13.671-.915,19.2046-5.2177,6.5453-11.4906,10.6624-17.7694,15.5553-.836.6416-1.6721,1.2783-2.5052,1.9081-1.2319.9298-2.5072,1.8369-3.9523,2.3779-7.0408,2.6364-14.4518-4.277-21.2202-.463-4.7419,2.672-6.9865,8.1829-9.2223,12.8429-3.7153,7.7436-8.4109,14.9769-13.515,21.8707-4.7923,6.4732-11.3455,12.5862-14.8466,19.8876-5.0657,7.7653-1.3533,17.0004-3.5663,25.4241-1.3878,2.9909-4.7123,7.0221-8.6892,5.8465-7.2392-.6791-12.8547-4.3086-18.3251-7.6252-.8617-.611-1.6909-1.2555-2.4894-1.9337-.7966-.6781-1.5616-1.3918-2.295-2.137-.6702-.9634-1.2368-2.0057-1.682-3.1123-2.8547-6.9342-.8282-13.8931,3.5307-19.6695,4.8624-6.4426,11.4383-11.7008,17.3183-17.1732,3.5397-3.2929,7.0793-6.5867,10.618-9.8806,5.7023-5.3055,11.5103-10.5904,16.4941-16.5898,4.8712-5.8652,8.6093-12.4994,14.6354-17.343,5.5365-4.4508,12.4303-6.9214,19.5116-5.2128.225.0543.4491.1115.6722.1727,2.5684.7068,5.2355,1.8804,7.8078,1.8834,1.146.002,2.2169-.3139,3.2139-.8262.9979-.5132,1.9199-1.222,2.7698-1.9969" style="fill:#1e2329;"/><path d="M68.315,111.1679c-.5646-.3208-1.0759-.6346-1.5221-.9318-6.4002-4.2701-7.4169-12.4194-3.1646-18.6775,3.5574-5.2325,9.2322-8.5155,13.6454-12.9307,1.069-1.07,2.0768-2.2042,2.9592-3.4351,1.0512-2.1894-.3267-4.7172-1.5378-6.4199-.383-.6219-.765-1.2487-1.0818-1.8854-.9496-1.907-1.3148-3.896.5932-6.0369,1.1934-1.1894,3.1004-2.139,4.9087-1.374,3.0718.9703,5.8731,2.7431,8.171,5.0459.766.768,1.4757,1.5941,2.1203,2.4697,4.0164,5.4506,3.1794,12.1233,1.0552,18.1247-1.3572,3.8348-3.133,7.5225-4.2483,11.4422-1.1737,4.125-.8765,8.2697-1.4599,12.4697-1.148,10.085-14.1172,5.7251-20.4384,2.139" style="fill:#1e2329;"/><path d="M52.1404,30.4309c1.0058-.2615,2.0343-.4214,3.059-.2901,1.9801.2517,4.427,1.9475,4.5583,4.1161.1007,1.6702-1.4145,2.9336-2.753,3.9375-8.1513,6.108-14.8664,13.7697-22.2872,20.6921-3.06,2.8547-6.2739,5.5997-9.9439,7.6114-2.0649,1.1322-4.354,2.0216-6.6993,1.1984-.9891-.3475-1.9208-.994-2.37-1.9416-1.0828-2.2831.2103-6.5117.7452-8.8649,1.9001-8.3517,8.7652-12.1598,15.4497-16.5079,5.9333-3.8605,12.3365-7.4781,19.1068-9.6191.3731-.1185.7522-.232,1.1342-.3317" style="fill:#1e2329;"/><path d="M130.0925,88.0685c5.3401-.3326,8.8955,3.288,9.7484,8.3586.4886,2.904-.0504,10.6081-.5153,13.6829-.4747,3.1419-3.0412,5.0943-6.185,4.6975-2.518-.3179-3.5841-.8736-6.3607-.4324-8.1463,1.2961-14.8989,8.1651-19.8432,14.2968-4.6767,5.8001-11.4066,17.727-19.1749,18.9717-9.2914,1.4875-14.9878-8.5599-23.6218-5.4526-7.3705,2.6522-13.0018,13.2011-18.0369,19.0288-4.2582,4.9285-9.6388,9.1403-16.0548,10.7404-6.6648,1.6622-14.3926.3543-19.9903-3.7055-3.7627-2.7293-5.7813-7.0753-6.3627-11.6021-.3455-2.6977-1.0937-11.4274,3.4715-10.9961,1.4668.1382,3.2001,1.3839,4.4646,2.0877,1.4905.8301,2.9504,1.7165,4.4665,2.5003,4.3678,2.2574,9.5618,3.1231,14.2711,1.4036,4.4468-1.6238,7.8216-5.2454,10.9309-8.6646,8.1444-8.9557,17.7792-25.0461,32.1698-19.5461,2.8625,1.0937,5.4536,3.0708,8.5885,3.4962,6.9421.9417,12.0068-4.7577,16.0884-9.4986,6.6855-7.7653,21.2725-28.7022,31.9458-29.3666" style="fill:#1e2329;"/></g></g></svg>